<?xml version="1.0" standalone="no"?>
<!DOCTYPE svg PUBLIC "-//W3C//DTD SVG 20010904//EN"
 "http://www.w3.org/TR/2001/REC-SVG-20010904/DTD/svg10.dtd">
<svg version="1.0" xmlns="http://www.w3.org/2000/svg"
 width="560.000000pt" height="560.000000pt" viewBox="0 0 560.000000 560.000000"
 preserveAspectRatio="xMidYMid meet">
<metadata>
Created by potrace 1.14, written by Peter Selinger 2001-2017
</metadata>
<g transform="translate(0.000000,560.000000) scale(0.100000,-0.100000)"
fill="#000000" stroke="none">
<path d="M2635 5576 c-64 -19 -126 -49 -158 -76 -44 -37 -55 -49 -80 -82 -41
-55 -56 -106 -53 -184 3 -70 23 -122 67 -170 10 -11 19 -23 19 -26 0 -3 -30
-13 -66 -23 -101 -27 -198 -77 -292 -150 -16 -13 -94 -93 -119 -122 -42 -49
-49 -60 -71 -94 -17 -29 -44 -47 -129 -90 -125 -62 -257 -137 -261 -150 -2 -5
-8 -9 -13 -9 -33 0 -253 -181 -391 -322 -105 -106 -290 -335 -306 -377 -3 -9
-8 -18 -12 -21 -8 -7 -80 -130 -80 -137 0 -3 -10 -22 -22 -42 -13 -20 -23 -38
-23 -41 -1 -3 -13 -32 -29 -65 -37 -80 -40 -88 -71 -175 -15 -41 -29 -82 -32
-90 -7 -16 -11 -31 -17 -57 -3 -10 -5 -18 -7 -18 -1 0 -3 -9 -5 -20 -1 -11
-12 -56 -22 -100 -20 -78 -23 -98 -41 -220 -11 -70 -19 -214 -22 -370 -1 -30
10 -187 16 -226 8 -62 34 -212 39 -234 2 -5 6 -23 10 -40 20 -82 77 -267 96
-310 5 -11 27 -63 50 -115 38 -84 56 -121 120 -235 14 -25 42 -69 125 -193 24
-36 155 -195 205 -247 140 -149 389 -345 533 -420 20 -11 37 -23 37 -27 0 -5
5 -8 11 -8 5 0 56 -22 112 -49 56 -27 131 -60 167 -74 36 -13 74 -28 85 -32
11 -5 22 -9 25 -10 10 -2 126 -37 150 -45 36 -12 121 -30 153 -32 15 -1 27 -5
27 -9 0 -4 8 -6 17 -5 10 2 33 -1 53 -5 77 -18 174 -24 370 -24 195 0 273 5
375 24 25 5 45 6 45 3 0 -2 6 1 13 7 8 6 16 8 19 5 3 -3 26 0 49 6 24 7 52 14
62 16 106 20 488 160 533 195 6 5 37 23 70 40 32 18 99 58 148 90 49 33 93 59
98 59 4 0 8 4 8 8 0 4 23 25 51 46 65 48 81 62 136 114 24 23 48 42 53 42 5 0
10 4 12 9 2 5 40 49 85 97 82 89 135 151 163 194 8 12 21 28 28 36 6 7 12 17
12 23 0 6 4 11 8 11 5 0 15 12 23 28 8 15 17 29 20 32 10 8 91 149 114 197 11
24 23 43 28 43 4 0 7 6 7 13 0 7 12 38 26 68 76 158 157 423 179 579 9 66 16
110 21 134 3 17 16 254 16 291 -1 72 -14 238 -23 296 -6 41 -12 83 -13 94 -1
11 -6 34 -9 50 -4 17 -9 39 -11 50 -3 11 -9 40 -15 65 -7 25 -14 54 -16 66
-18 79 -86 264 -142 381 -19 40 -33 74 -31 77 2 2 -4 12 -12 22 -9 11 -26 39
-40 64 -13 25 -28 48 -34 52 -6 4 -8 8 -4 8 10 0 -89 146 -167 245 -126 162
-332 361 -471 455 -27 19 -50 37 -52 42 -2 4 -7 8 -12 8 -5 0 -35 17 -67 39
-32 21 -113 67 -180 102 -67 35 -124 70 -127 79 -6 17 -22 41 -51 79 -29 38
-166 171 -175 171 -5 0 -15 6 -22 13 -34 30 -157 91 -270 131 l-87 32 33 47
c72 102 71 247 -4 341 -26 34 -83 84 -109 98 -14 7 -28 16 -31 19 -5 6 -95 38
-130 47 -8 2 -62 5 -120 6 -84 3 -119 -1 -175 -18z"/>
</g>
</svg>
